Jump_normalized_pl07_filtered_grf
version=1
nRows=25
nColumns=37
inDegrees=yes
endheader
time		1_ground_force_vx		1_ground_force_vy		1_ground_force_vz		1_ground_force_px		1_ground_force_py		1_ground_force_pz		1_ground_torque_x		1_ground_torque_y		1_ground_torque_z		2_ground_force_vx		2_ground_force_vy		2_ground_force_vz		2_ground_force_px		2_ground_force_py		2_ground_force_pz		2_ground_torque_x		2_ground_torque_y		2_ground_torque_z		3_ground_force_vx		3_ground_force_vy		3_ground_force_vz		3_ground_force_px		3_ground_force_py		3_ground_force_pz		3_ground_torque_x		3_ground_torque_y		3_ground_torque_z		4_ground_force_vx		4_ground_force_vy		4_ground_force_vz		4_ground_force_px		4_ground_force_py		4_ground_force_pz		4_ground_torque_x		4_ground_torque_y		4_ground_torque_z		
0.079500		-0.000000		-0.000000		-0.000000		0.137251		0.000000		0.190652		-0.000000		-0.000000		0.000000		0.000000		-0.000000		-0.000000		-0.203925		0.000000		0.212187		-0.000000		0.000000		-0.000000		-118.186233		773.761738		85.776596		0.413068		1.261346		1.876067		5.390682		-35.292635		-3.912422		139.576443		790.188233		3.146257		-0.355035		1.255155		1.903210		5.605037		31.731961		0.126346		
0.081848		-0.000000		-0.000000		-0.000000		0.137251		0.000000		0.190652		-0.000000		-0.000000		0.000000		0.000000		-0.000000		-0.000000		-0.203925		0.000000		0.212187		-0.000000		0.000000		-0.000000		-119.105047		776.887808		83.312267		0.413066		1.261337		1.876128		5.443274		-35.504901		-3.807489		141.337882		794.276961		0.967490		-0.355047		1.255162		1.903275		5.687556		31.962371		0.038931		
0.084197		0.000000		-0.000000		-0.000000		0.137251		0.000000		0.190652		-0.000000		-0.000000		0.000000		-0.000000		-0.000000		-0.000000		-0.203925		0.000000		0.212187		-0.000000		0.000000		-0.000000		-120.023680		779.565218		80.794209		0.413065		1.261332		1.876199		5.495627		-35.694619		-3.699391		143.027752		797.985535		-1.366059		-0.355061		1.255166		1.903340		5.768194		32.182108		-0.055094		
0.086545		0.000000		-0.000000		-0.000000		0.137251		0.000000		0.190652		-0.000000		-0.000000		0.000000		-0.000000		-0.000000		-0.000000		-0.203925		0.000000		0.212187		-0.000000		0.000000		-0.000000		-120.940895		781.809564		78.245180		0.413065		1.261330		1.876280		5.547658		-35.862238		-3.589169		144.628790		801.274947		-3.870023		-0.355076		1.255169		1.903404		5.846380		32.390213		-0.156440		
0.088894		0.000000		-0.000000		-0.000000		0.137251		0.000000		0.190652		-0.000000		-0.000000		0.000000		-0.000000		-0.000000		-0.000000		-0.203925		0.000000		0.212187		-0.000000		0.000000		-0.000000		-121.853299		783.628886		75.680610		0.413066		1.261334		1.876370		5.599175		-36.007844		-3.477532		146.124863		804.105231		-6.555844		-0.355093		1.255171		1.903468		5.921554		32.585504		-0.265671		
0.091242		0.000000		-0.000000		-0.000000		0.137251		0.000000		0.190652		-0.000000		-0.000000		0.000000		-0.000000		-0.000000		-0.000000		-0.203925		0.000000		0.212187		-0.000000		0.000000		-0.000000		-122.755478		785.033146		73.108697		0.413069		1.261340		1.876467		5.649894		-36.131612		-3.364868		147.504538		806.448253		-9.426220		-0.355112		1.255170		1.903532		5.993274		32.766887		-0.383002		
0.093591		0.000000		-0.000000		-0.000000		0.137251		0.000000		0.190652		-0.000000		-0.000000		0.000000		-0.000000		-0.000000		-0.000000		-0.203925		0.000000		0.212187		-0.000000		0.000000		-0.000000		-123.640178		786.027098		70.529179		0.413074		1.261350		1.876571		5.699432		-36.233431		-3.251177		148.760306		808.281939		-12.477165		-0.355130		1.255169		1.903596		6.061194		32.933199		-0.508380		
0.095939		0.000000		-0.000000		0.000000		0.137251		0.000000		0.190652		-0.000000		-0.000000		0.000000		-0.000000		0.000000		-0.000000		-0.203925		0.000000		0.212187		-0.000000		0.000000		0.000000		-124.498366		786.607664		67.933747		0.413080		1.261363		1.876678		5.747311		-36.312755		-3.136075		149.887555		809.585866		-15.699725		-0.355149		1.255166		1.903659		6.125040		33.083102		-0.641559		
0.098288		0.000000		0.000000		0.000000		0.137251		0.000000		0.190652		0.000000		0.000000		-0.000000		-0.000000		0.000000		0.000000		-0.203925		0.000000		0.212187		0.000000		-0.000000		0.000000		-125.319900		786.770002		65.307669		0.413087		1.261378		1.876788		5.792993		-36.368947		-3.018887		150.886000		810.347633		-19.078305		-0.355166		1.255162		1.903724		6.184660		33.215301		-0.782005		
0.100636		0.000000		0.000000		0.000000		0.137251		0.000000		0.190652		0.000000		0.000000		-0.000000		-0.000000		0.000000		0.000000		-0.203925		0.000000		0.212187		0.000000		-0.000000		0.000000		-126.094836		786.512472		62.632397		0.413094		1.261393		1.876898		5.835959		-36.401602		-2.898770		151.760197		810.567448		-22.590515		-0.355183		1.255160		1.903789		6.240054		33.328789		-0.928878		
0.102985		0.000000		0.000000		0.000000		0.137251		0.000000		0.190652		0.000000		0.000000		-0.000000		-0.000000		0.000000		0.000000		-0.203925		0.000000		0.212187		0.000000		-0.000000		0.000000		-126.813406		785.829639		59.886530		0.413100		1.261408		1.877006		5.875702		-36.410191		-2.774748		152.515959		810.246272		-26.211558		-0.355199		1.255157		1.903855		6.291257		33.422519		-1.081223		
0.105333		0.000000		0.000000		0.000000		0.137251		0.000000		0.190652		0.000000		0.000000		-0.000000		-0.000000		0.000000		0.000000		-0.203925		0.000000		0.212187		0.000000		-0.000000		0.000000		-127.466423		784.713535		57.047269		0.413106		1.261422		1.877111		5.911754		-36.394160		-2.645789		153.159629		809.385175		-29.914646		-0.355212		1.255155		1.903921		6.338321		33.495396		-1.237985		
0.107682		-0.000000		0.000000		0.000000		0.137251		0.000000		0.190652		0.000000		0.000000		-0.000000		0.000000		0.000000		0.000000		-0.203925		0.000000		0.212187		0.000000		-0.000000		0.000000		-128.048260		783.169249		54.096253		0.413109		1.261435		1.877211		5.943858		-36.353842		-2.511087		153.700590		808.001972		-33.669709		-0.355223		1.255154		1.903988		6.381414		33.547002		-1.397920		
0.110030		-0.000000		0.000000		0.000000		0.137251		0.000000		0.190652		0.000000		0.000000		-0.000000		0.000000		0.000000		0.000000		-0.203925		0.000000		0.212187		0.000000		-0.000000		0.000000		-128.555046		781.200581		51.017577		0.413110		1.261445		1.877306		5.971858		-36.289656		-2.369955		154.146269		806.110794		-37.448808		-0.355232		1.255156		1.904056		6.420644		33.576876		-1.559854		
0.112379		-0.000000		0.000000		0.000000		0.137251		0.000000		0.190652		0.000000		0.000000		-0.000000		0.000000		0.000000		0.000000		-0.203925		0.000000		0.212187		0.000000		-0.000000		0.000000		-128.984435		778.811560		47.798232		0.413108		1.261454		1.877394		5.995699		-36.202193		-2.221847		154.502044		803.722521		-41.224908		-0.355239		1.255159		1.904125		6.456056		33.584519		-1.722637		
0.114727		-0.000000		0.000000		0.000000		0.137251		0.000000		0.190652		0.000000		0.000000		-0.000000		0.000000		0.000000		0.000000		-0.203925		0.000000		0.212187		0.000000		-0.000000		0.000000		-129.337789		776.019438		44.432840		0.413103		1.261458		1.877476		6.015545		-36.092926		-2.066586		154.773263		800.858418		-44.976317		-0.355241		1.255164		1.904193		6.487724		33.570056		-1.885305		
0.117076		-0.000000		0.000000		0.000000		0.137251		0.000000		0.190652		0.000000		0.000000		-0.000000		0.000000		0.000000		0.000000		-0.203925		0.000000		0.212187		0.000000		-0.000000		0.000000		-129.617391		772.843967		40.920126		0.413094		1.261462		1.877551		6.031625		-35.963576		-1.904179		154.962849		797.536586		-48.685707		-0.355243		1.255172		1.904262		6.515656		33.533675		-2.047069		
0.119424		-0.000000		0.000000		0.000000		0.137251		0.000000		0.190652		0.000000		0.000000		-0.000000		0.000000		0.000000		0.000000		-0.203925		0.000000		0.212187		0.000000		-0.000000		-0.000000		-129.825522		769.305979		37.261152		0.413081		1.261463		1.877622		6.044190		-35.816005		-1.734739		155.071155		793.769835		-52.340242		-0.355241		1.255182		1.904331		6.539786		33.475500		-2.207338		
0.121773		-0.000000		-0.000000		-0.000000		0.137251		0.000000		0.190652		-0.000000		-0.000000		0.000000		0.000000		-0.000000		-0.000000		-0.203925		0.000000		0.212187		-0.000000		0.000000		-0.000000		-129.964981		765.432908		33.460688		0.413067		1.261462		1.877688		6.053530		-35.652459		-1.558537		155.097568		789.572598		-55.932878		-0.355237		1.255194		1.904399		6.560039		33.395923		-2.365754		
0.124121		-0.000000		-0.000000		-0.000000		0.137251		0.000000		0.190652		-0.000000		-0.000000		0.000000		0.000000		-0.000000		-0.000000		-0.203925		0.000000		0.212187		-0.000000		0.000000		-0.000000		-130.038315		761.256414		29.525810		0.413051		1.261461		1.877750		6.059926		-35.475372		-1.375934		155.040964		784.960043		-59.462936		-0.355232		1.255207		1.904465		6.576349		33.295528		-2.522234		
0.126470		-0.000000		-0.000000		-0.000000		0.137251		0.000000		0.190652		-0.000000		-0.000000		0.000000		0.000000		-0.000000		-0.000000		-0.203925		0.000000		0.212187		-0.000000		0.000000		-0.000000		-130.046043		756.805503		25.462463		0.413034		1.261459		1.877810		6.063559		-35.287003		-1.187219		154.898852		779.941234		-62.934825		-0.355223		1.255221		1.904531		6.588603		33.174696		-2.676926		
0.128818		-0.000000		-0.000000		-0.000000		0.137251		0.000000		0.190652		-0.000000		-0.000000		0.000000		0.000000		-0.000000		-0.000000		-0.203925		0.000000		0.212187		-0.000000		0.000000		-0.000000		-129.986282		752.106753		21.275127		0.413017		1.261458		1.877869		6.064492		-35.089435		-0.992586		154.668140		774.521580		-66.357912		-0.355212		1.255236		1.904595		6.596658		33.033651		-2.830196		
0.131167		0.000000		-0.000000		-0.000000		0.137251		0.000000		0.190652		-0.000000		-0.000000		0.000000		0.000000		-0.000000		-0.000000		-0.203925		0.000000		0.212187		-0.000000		0.000000		-0.000000		-129.855965		747.187500		16.968412		0.413002		1.261459		1.877928		6.062702		-34.884613		-0.792218		154.347831		768.713120		-69.747095		-0.355199		1.255251		1.904656		6.600463		32.872907		-2.982638		
0.133515		0.000000		-0.000000		-0.000000		0.137251		0.000000		0.190652		-0.000000		-0.000000		0.000000		-0.000000		-0.000000		-0.000000		-0.203925		0.000000		0.212187		-0.000000		0.000000		-0.000000		-129.648709		742.066362		12.542648		0.412990		1.261461		1.877987		6.057989		-34.673931		-0.586070		153.936824		762.523330		-73.119870		-0.355184		1.255267		1.904716		6.599933		32.692655		-3.134964		
0.135864		0.000000		-0.000000		-0.000000		0.137251		0.000000		0.190652		-0.000000		-0.000000		0.000000		-0.000000		-0.000000		-0.000000		-0.203925		0.000000		0.212187		-0.000000		0.000000		-0.000000		-129.354491		736.752457		7.993138		0.412981		1.261465		1.878048		6.049959		-34.458190		-0.373840		153.434132		755.955931		-76.495783		-0.355167		1.255282		1.904774		6.594959		32.492755		-3.287971		
